<svg xmlns="http://www.w3.org/2000/svg" width="1200" height="630" viewBox="0 0 1200 630" role="img" aria-label="AzarFaith social preview">
  <defs>
    <linearGradient id="bg" x1="0%" y1="0%" x2="100%" y2="100%">
      <stop offset="0%" stop-color="#FFF7ED"/>
      <stop offset="55%" stop-color="#FFFFFF"/>
      <stop offset="100%" stop-color="#FFFBEB"/>
    </linearGradient>
    <radialGradient id="glowA" cx="0%" cy="0%" r="100%">
      <stop offset="0%" stop-color="#F59E0B" stop-opacity=".20"/>
      <stop offset="100%" stop-color="#F59E0B" stop-opacity="0"/>
    </radialGradient>
    <radialGradient id="glowB" cx="100%" cy="100%" r="100%">
      <stop offset="0%" stop-color="#FBBF24" stop-opacity=".22"/>
      <stop offset="100%" stop-color="#FBBF24" stop-opacity="0"/>
    </radialGradient>
  </defs>

  <rect width="1200" height="630" fill="url(#bg)"/>
  <circle cx="120" cy="70" r="340" fill="url(#glowA)"/>
  <circle cx="1050" cy="540" r="260" fill="url(#glowB)"/>

  <rect x="84" y="84" width="74" height="74" rx="20" fill="#F59E0B"/>
  <path
    d="M121 102c0 6.1 4.9 9.8 4.9 16.3 0 5.6-3.5 9.9-8.8 9.9-5.4 0-8.7-4.2-8.7-9.4 0-7.1 5.9-12.2 11.2-16.8l1.4-1.1Zm4 19.1c3.5 2.1 5.8 5.6 5.8 10.2 0 6.9-4.8 14.3-13.9 14.3-8 0-13.4-5.9-13.4-12.9 0-6.2 4-10.3 8.2-13.5-.7 1.3-1 2.9-1 4.6 0 7.3 5.2 12.5 11.9 12.5 5.7 0 9.9-4.3 9.9-10.1 0-1.9-.3-3.6-.7-5.1Z"
    fill="#fff"
  />

  <text x="190" y="136" fill="#111827" font-family="Georgia, 'Times New Roman', serif" font-size="56" font-weight="700">
    AzarFaith
  </text>
  <text x="190" y="184" fill="#B45309" font-family="Arial, sans-serif" font-size="26">
    Faith-based giving for Nigeria
  </text>

  <text x="84" y="310" fill="#111827" font-family="Georgia, 'Times New Roman', serif" font-size="88" font-weight="700">
    Give to those doing
  </text>
  <text x="84" y="404" fill="#F59E0B" font-family="Georgia, 'Times New Roman', serif" font-size="88" font-weight="700">
    God's work
  </text>

  <text x="84" y="478" fill="#475569" font-family="Arial, sans-serif" font-size="34">
    Support churches, missionaries, orphanages and faith-based
  </text>
  <text x="84" y="520" fill="#475569" font-family="Arial, sans-serif" font-size="34">
    schools across Nigeria with transparent one-time and recurring giving.
  </text>

  <rect x="780" y="160" width="330" height="294" rx="34" fill="#fff" stroke="#FED7AA"/>
  <rect x="780" y="160" width="330" height="88" rx="34" fill="#F59E0B"/>
  <text x="816" y="215" fill="#fff" font-family="Arial, sans-serif" font-size="22" letter-spacing="3">
    LIVE ON AZARFAITH
  </text>
  <text x="816" y="288" fill="#92400E" font-family="Arial, sans-serif" font-size="19" letter-spacing="3">
    ORGANIZATIONS
  </text>
  <text x="816" y="338" fill="#111827" font-family="Georgia, 'Times New Roman', serif" font-size="52" font-weight="700">
    Verified
  </text>
  <text x="816" y="382" fill="#475569" font-family="Arial, sans-serif" font-size="26">
    Campaigns, organizations, and recurring support
  </text>
  <text x="816" y="416" fill="#475569" font-family="Arial, sans-serif" font-size="26">
    built for trusted faith-based causes.
  </text>

  <rect x="84" y="554" width="204" height="20" rx="10" fill="#FDE68A"/>
  <rect x="304" y="554" width="224" height="20" rx="10" fill="#E5E7EB"/>
  <rect x="544" y="554" width="248" height="20" rx="10" fill="#D1FAE5"/>
</svg>
